<?xml version="1.0" standalone="no"?><!DOCTYPE svg PUBLIC "-//W3C//DTD SVG 1.1//EN" "http://www.w3.org/Graphics/SVG/1.1/DTD/svg11.dtd"><svg t="1613832519893" class="icon" viewBox="0 0 1024 1024" version="1.1" xmlns="http://www.w3.org/2000/svg" p-id="2179" xmlns:xlink="http://www.w3.org/1999/xlink" width="200" height="200"><defs><style type="text/css"></style></defs><path d="M208.194 870.832l606.738-0.504 9.1-0.009 1.192-8.713c1.388-10.194 1.921-20.971 1.762-31.906-0.175-12.03-1.192-24.341-2.791-36.403-1.729-13.027-4.253-26.059-7.22-38.34-3.171-13.121-6.857-25.221-10.626-35.382l0.036-0.013c-10.837-29.163-26.318-56.133-45.479-80.16-19.624-24.638-43.098-46.195-69.339-63.878-26.132-17.621-55.156-31.512-86.013-40.908-30.034-9.145-61.708-14.028-94.027-13.959-21.816 0.045-43.788 2.475-65.314 6.959a338.488 338.488 0 0 0-63.68 20.035c-20.464 8.746-39.83 19.474-57.415 31.809-17.273 12.119-32.844 25.813-46.052 40.729-6.613 7.46-12.878 14.866-18.841 22.484-5.84 7.46-11.303 15.029-16.4 22.945a273.979 273.979 0 0 0-14.588 25.492c-4.548 9.051-8.858 18.818-12.936 29.55-3.443 9.071-6.951 20.89-10.04 34.096-2.946 12.6-5.522 26.348-7.313 40.082v0.045c-1.624 12.474-2.67 25.131-2.851 37.145-0.15 10.654 0.383 20.938 1.803 30.241l1.308 8.575 8.986-0.012z m141.979-577.918c-0.664 4.79-1.04 9.674-1.04 14.48 0 22.638 4.208 43.252 11.674 61.586 7.969 19.577 19.691 36.644 33.976 50.796A161.493 161.493 0 0 0 419.96 440.1c9.096 5.942 18.869 11.019 29.092 15.121 10.221 4.09 20.751 7.203 31.369 9.256a170.534 170.534 0 0 0 32.388 3.087c20.286 0 40.688-3.65 60.01-11.249 18.269-7.189 35.639-17.909 51.078-32.417 12.531-11.778 22.889-25.157 30.873-39.519l0.017 0.006c8.082-14.578 13.751-30.187 16.759-46.193 2.995-15.9 3.406-32.269 1.062-48.504-2.274-15.776-7.154-31.414-14.761-46.368-8.563-16.84-19.428-31.308-31.894-43.364-13.08-12.641-28.008-22.65-43.981-29.998a164.318 164.318 0 0 0-34.519-11.458 171.826 171.826 0 0 0-36.786-3.76c-12.17 0.069-24.477 1.49-36.583 4.22-11.932 2.696-23.531 6.652-34.488 11.841-15.89 7.523-30.716 17.697-43.686 30.465-12.258 12.063-22.875 26.53-31.178 43.33-2.057 4.171-4.2 9.242-6.206 14.876-1.95 5.462-3.726 11.208-5.134 16.885-1.335 5.413-2.469 11.012-3.219 16.557z m303.962 175.013c-2.715 2.438-5.824 5.376-9.556 9.187h-0.037l-10.589 10.795 14.321 5.413c6.683 2.521 14.134 5.712 21.87 9.291a450.105 450.105 0 0 1 23.271 11.631c7.524 4.042 14.72 8.192 21.166 12.205 6.264 3.895 12.063 7.843 17.044 11.64l10.203 7.785-0.126 0.098a588.77 588.77 0 0 1 9.152 7.447 371.563 371.563 0 0 1 16.552 14.598 384.615 384.615 0 0 1 15.713 15.587c5.233 5.494 10.475 11.277 15.933 17.545l-0.028 0.021a308.639 308.639 0 0 1 28.41 38.255v0.032a333.594 333.594 0 0 1 22.884 43.065 354.21 354.21 0 0 1 16.868 47.086h0.013c4.432 15.762 7.964 32.447 10.423 50.021 0.716 5.087 1.469 16.092 2.079 29.603a1529.643 1529.643 0 0 1 1.322 44.327c0.18 12.07 0.2 23.486 0.005 32.269-0.184 8.416-0.611 14.813-1.327 17.764h-0.008c-0.664 2.756-1.905 5.396-3.577 7.785v0.041a26.117 26.117 0 0 1-6.061 6.097h-0.04a31.324 31.324 0 0 1-8.819 4.379h-0.036c-3 0.928-6.313 1.485-9.784 1.518-72.062 0.937-148.111 0.606-223.119 0.289l-2.82-0.017-10.65-0.049c-34.259-0.138-66.178-0.293-92.862-0.325v0.028h-10.396l-336.66 0.045v0.045c-4.035 0-7.73-0.383-11.022-1.127-3.695-0.831-6.994-2.19-9.81-4.021l-0.008 0.013a22.96 22.96 0 0 1-6.453-6.309c-1.581-2.291-2.831-4.969-3.675-7.928l-0.403-1.403v-0.509c-0.547-3.191-0.91-8.425-1.097-14.977-0.246-8.343-0.283-19.449-0.181-31.328 0.13-15.185 0.556-31.113 1.091-44.389 0.564-13.783 1.284-25.089 1.992-30.278l1.199-8.733h0.122a377.79 377.79 0 0 1 9.053-41.205c4.656-16.689 10.321-32.537 16.795-47.408h0.045c6.727-15.42 14.378-29.937 22.729-43.387 8.713-14.02 18.169-26.912 28.132-38.515 10.032-11.681 19.734-22.046 29.493-31.438 9.796-9.438 19.519-17.776 29.575-25.395 10.07-7.644 20.745-14.77 32.388-21.732 11.499-6.882 23.785-13.507 37.262-20.255l2.267-1.135h0.136a127.112 127.112 0 0 1 4.058-1.817c2.474-1.06 4.1-1.715 5.614-2.307l0.008 0.014 0.317-0.124c3.695-1.478 7.362-2.94 11.19-4.8l11.505-5.6-8.135-9.659a53.59 53.59 0 0 0-4.67-4.863h-0.043c-1.501-1.392-3.74-3.294-6.194-5.384l0.022-0.021c-4.166-3.518-9.189-7.799-14.661-13.232a166.728 166.728 0 0 1-17.642-20.568c-13.874-19.099-24.029-38.922-30.793-58.878-7.138-21.081-10.533-42.445-10.569-63.41a199.277 199.277 0 0 1 6.304-49.953c4.265-16.543 10.609-32.513 18.773-47.489 8.106-14.885 18.067-28.864 29.588-41.525a216.149 216.149 0 0 1 38.748-33.53 216.328 216.328 0 0 1 58.607-27.896c20.24-6.129 42.054-9.5 64.993-9.543 23.946-0.033 46.467 3.469 67.227 9.885 21.976 6.79 42.02 16.84 59.746 29.379 13.927 9.84 26.506 21.305 37.571 33.988a216.58 216.58 0 0 1 28.7 42.015v0.041c7.789 14.948 13.816 30.752 17.865 46.972 4.017 16.042 6.129 32.59 6.157 49.216 0.037 21.132-3.275 42.424-10.255 63.068-6.671 19.697-16.682 38.867-30.315 56.814-6.845 8.992-11.773 14.767-15.867 19.01-4.208 4.36-7.501 7.097-11.054 10.042-2.138 1.76-4.404 3.64-7.159 6.113z" fill="#d81e06" p-id="2180"></path></svg>